<mxfile host="app.diagrams.net" modified="2023-11-27T17:43:26.858Z" agent="Mozilla/5.0 (Windows NT 10.0; Win64; x64; rv:120.0) Gecko/20100101 Firefox/120.0" etag="cD6kTc3wdyqe6pyq3B2N" version="22.1.4" type="github">
  <diagram name="Page-1" id="e7e014a7-5840-1c2e-5031-d8a46d1fe8dd">
    <mxGraphModel dx="1860" dy="962" grid="1" gridSize="10" guides="1" tooltips="1" connect="1" arrows="1" fold="1" page="1" pageScale="1" pageWidth="1169" pageHeight="826" background="none" math="0" shadow="0">
      <root>
        <mxCell id="0" />
        <mxCell id="1" parent="0" />
        <mxCell id="2" value="Checkout process" style="swimlane;whiteSpace=wrap" parent="1" vertex="1">
          <mxGeometry y="130" width="390" height="700" as="geometry" />
        </mxCell>
        <mxCell id="5" value="" style="ellipse;shape=startState;fillColor=#000000;strokeColor=#ff0000;" parent="2" vertex="1">
          <mxGeometry x="100" y="40" width="30" height="30" as="geometry" />
        </mxCell>
        <mxCell id="6" value="" style="edgeStyle=elbowEdgeStyle;elbow=horizontal;verticalAlign=bottom;endArrow=open;endSize=8;strokeColor=#000000;endFill=1;rounded=0" parent="2" source="5" target="7" edge="1">
          <mxGeometry x="100" y="40" as="geometry">
            <mxPoint x="115" y="110" as="targetPoint" />
          </mxGeometry>
        </mxCell>
        <mxCell id="GlFWKQgtPCK0ITAhxlho-102" value="" style="edgeStyle=orthogonalEdgeStyle;rounded=0;orthogonalLoop=1;jettySize=auto;html=1;" edge="1" parent="2" source="7" target="GlFWKQgtPCK0ITAhxlho-101">
          <mxGeometry relative="1" as="geometry" />
        </mxCell>
        <mxCell id="7" value="Item Homepage" style="" parent="2" vertex="1">
          <mxGeometry x="60" y="82" width="110" height="50" as="geometry" />
        </mxCell>
        <mxCell id="12" value="" style="edgeStyle=elbowEdgeStyle;elbow=horizontal;strokeColor=#000000;endArrow=open;endFill=1;rounded=0;exitX=0;exitY=0.5;exitDx=0;exitDy=0;" parent="2" source="GlFWKQgtPCK0ITAhxlho-41" target="7" edge="1">
          <mxGeometry width="100" height="100" relative="1" as="geometry">
            <mxPoint x="60" y="350" as="sourcePoint" />
            <mxPoint x="260" y="190" as="targetPoint" />
            <Array as="points">
              <mxPoint x="30" y="250" />
            </Array>
          </mxGeometry>
        </mxCell>
        <mxCell id="GlFWKQgtPCK0ITAhxlho-44" value="&lt;div&gt;Yes&lt;/div&gt;" style="edgeLabel;html=1;align=center;verticalAlign=middle;resizable=0;points=[];" vertex="1" connectable="0" parent="12">
          <mxGeometry x="-0.008" y="2" relative="1" as="geometry">
            <mxPoint as="offset" />
          </mxGeometry>
        </mxCell>
        <mxCell id="GlFWKQgtPCK0ITAhxlho-99" value="" style="edgeStyle=orthogonalEdgeStyle;rounded=0;orthogonalLoop=1;jettySize=auto;html=1;" edge="1" parent="2" source="GlFWKQgtPCK0ITAhxlho-41" target="GlFWKQgtPCK0ITAhxlho-98">
          <mxGeometry relative="1" as="geometry" />
        </mxCell>
        <mxCell id="GlFWKQgtPCK0ITAhxlho-100" value="&lt;div&gt;No&lt;/div&gt;" style="edgeLabel;html=1;align=center;verticalAlign=middle;resizable=0;points=[];" vertex="1" connectable="0" parent="GlFWKQgtPCK0ITAhxlho-99">
          <mxGeometry x="-0.1491" relative="1" as="geometry">
            <mxPoint as="offset" />
          </mxGeometry>
        </mxCell>
        <mxCell id="GlFWKQgtPCK0ITAhxlho-41" value="Continue Shopping?" style="rhombus;whiteSpace=wrap;html=1;" vertex="1" parent="2">
          <mxGeometry x="87.5" y="340" width="160" height="80" as="geometry" />
        </mxCell>
        <mxCell id="GlFWKQgtPCK0ITAhxlho-89" style="edgeStyle=orthogonalEdgeStyle;rounded=0;orthogonalLoop=1;jettySize=auto;html=1;exitX=0.5;exitY=1;exitDx=0;exitDy=0;entryX=0.5;entryY=0;entryDx=0;entryDy=0;" edge="1" parent="2" target="GlFWKQgtPCK0ITAhxlho-60">
          <mxGeometry relative="1" as="geometry">
            <mxPoint x="115" y="482" as="sourcePoint" />
          </mxGeometry>
        </mxCell>
        <mxCell id="GlFWKQgtPCK0ITAhxlho-158" style="edgeStyle=orthogonalEdgeStyle;rounded=0;orthogonalLoop=1;jettySize=auto;html=1;exitX=0;exitY=0.5;exitDx=0;exitDy=0;entryX=0;entryY=0.25;entryDx=0;entryDy=0;" edge="1" parent="2" source="GlFWKQgtPCK0ITAhxlho-60" target="7">
          <mxGeometry relative="1" as="geometry">
            <Array as="points">
              <mxPoint x="10" y="580" />
              <mxPoint x="10" y="95" />
            </Array>
          </mxGeometry>
        </mxCell>
        <mxCell id="GlFWKQgtPCK0ITAhxlho-159" value="No" style="edgeLabel;html=1;align=center;verticalAlign=middle;resizable=0;points=[];" vertex="1" connectable="0" parent="GlFWKQgtPCK0ITAhxlho-158">
          <mxGeometry x="-0.1342" relative="1" as="geometry">
            <mxPoint as="offset" />
          </mxGeometry>
        </mxCell>
        <mxCell id="GlFWKQgtPCK0ITAhxlho-60" value="Checkout?" style="rhombus;whiteSpace=wrap;html=1;" vertex="1" parent="2">
          <mxGeometry x="95" y="540" width="145" height="80" as="geometry" />
        </mxCell>
        <mxCell id="GlFWKQgtPCK0ITAhxlho-98" value="&lt;div&gt;Go to cart&lt;/div&gt;" style="rounded=1;whiteSpace=wrap;html=1;" vertex="1" parent="2">
          <mxGeometry x="107.5" y="460" width="120" height="60" as="geometry" />
        </mxCell>
        <mxCell id="GlFWKQgtPCK0ITAhxlho-115" style="edgeStyle=orthogonalEdgeStyle;rounded=0;orthogonalLoop=1;jettySize=auto;html=1;exitX=0.5;exitY=1;exitDx=0;exitDy=0;entryX=0.5;entryY=0;entryDx=0;entryDy=0;" edge="1" parent="2" source="GlFWKQgtPCK0ITAhxlho-101" target="GlFWKQgtPCK0ITAhxlho-111">
          <mxGeometry relative="1" as="geometry" />
        </mxCell>
        <mxCell id="GlFWKQgtPCK0ITAhxlho-101" value="Add item to cart" style="rounded=1;whiteSpace=wrap;html=1;" vertex="1" parent="2">
          <mxGeometry x="187.5" y="140" width="120" height="60" as="geometry" />
        </mxCell>
        <mxCell id="GlFWKQgtPCK0ITAhxlho-113" value="" style="edgeStyle=orthogonalEdgeStyle;rounded=0;orthogonalLoop=1;jettySize=auto;html=1;" edge="1" parent="2" source="GlFWKQgtPCK0ITAhxlho-111" target="GlFWKQgtPCK0ITAhxlho-41">
          <mxGeometry relative="1" as="geometry" />
        </mxCell>
        <mxCell id="GlFWKQgtPCK0ITAhxlho-111" value="POPUP&lt;br&gt;items reserved for 15 minutes" style="rounded=1;whiteSpace=wrap;html=1;" vertex="1" parent="2">
          <mxGeometry x="187.5" y="250" width="120" height="60" as="geometry" />
        </mxCell>
        <mxCell id="GlFWKQgtPCK0ITAhxlho-47" value="Stock Management" style="swimlane;whiteSpace=wrap" vertex="1" parent="1">
          <mxGeometry x="390" y="128" width="500" height="702" as="geometry" />
        </mxCell>
        <mxCell id="GlFWKQgtPCK0ITAhxlho-118" style="edgeStyle=orthogonalEdgeStyle;rounded=0;orthogonalLoop=1;jettySize=auto;html=1;exitX=0.5;exitY=1;exitDx=0;exitDy=0;entryX=0.5;entryY=0;entryDx=0;entryDy=0;" edge="1" parent="GlFWKQgtPCK0ITAhxlho-47" source="GlFWKQgtPCK0ITAhxlho-105" target="GlFWKQgtPCK0ITAhxlho-117">
          <mxGeometry relative="1" as="geometry" />
        </mxCell>
        <mxCell id="GlFWKQgtPCK0ITAhxlho-105" value="Reserve (X) product for 15 minutes" style="rounded=1;whiteSpace=wrap;html=1;" vertex="1" parent="GlFWKQgtPCK0ITAhxlho-47">
          <mxGeometry x="20" y="42" width="120" height="60" as="geometry" />
        </mxCell>
        <mxCell id="GlFWKQgtPCK0ITAhxlho-124" value="" style="edgeStyle=orthogonalEdgeStyle;rounded=0;orthogonalLoop=1;jettySize=auto;html=1;" edge="1" parent="GlFWKQgtPCK0ITAhxlho-47" source="GlFWKQgtPCK0ITAhxlho-117" target="GlFWKQgtPCK0ITAhxlho-119">
          <mxGeometry relative="1" as="geometry" />
        </mxCell>
        <mxCell id="GlFWKQgtPCK0ITAhxlho-134" style="edgeStyle=orthogonalEdgeStyle;rounded=0;orthogonalLoop=1;jettySize=auto;html=1;entryX=0.5;entryY=0;entryDx=0;entryDy=0;" edge="1" parent="GlFWKQgtPCK0ITAhxlho-47" source="GlFWKQgtPCK0ITAhxlho-117" target="GlFWKQgtPCK0ITAhxlho-129">
          <mxGeometry relative="1" as="geometry" />
        </mxCell>
        <mxCell id="GlFWKQgtPCK0ITAhxlho-117" value="Minus (X) product from stock level" style="rounded=1;whiteSpace=wrap;html=1;" vertex="1" parent="GlFWKQgtPCK0ITAhxlho-47">
          <mxGeometry x="20" y="152" width="120" height="60" as="geometry" />
        </mxCell>
        <mxCell id="GlFWKQgtPCK0ITAhxlho-122" value="" style="edgeStyle=orthogonalEdgeStyle;rounded=0;orthogonalLoop=1;jettySize=auto;html=1;" edge="1" parent="GlFWKQgtPCK0ITAhxlho-47" source="GlFWKQgtPCK0ITAhxlho-119" target="GlFWKQgtPCK0ITAhxlho-121">
          <mxGeometry relative="1" as="geometry" />
        </mxCell>
        <mxCell id="GlFWKQgtPCK0ITAhxlho-123" value="No" style="edgeLabel;html=1;align=center;verticalAlign=middle;resizable=0;points=[];" vertex="1" connectable="0" parent="GlFWKQgtPCK0ITAhxlho-122">
          <mxGeometry x="-0.25" relative="1" as="geometry">
            <mxPoint as="offset" />
          </mxGeometry>
        </mxCell>
        <mxCell id="GlFWKQgtPCK0ITAhxlho-119" value="Over 15 minutes?" style="rhombus;whiteSpace=wrap;html=1;" vertex="1" parent="GlFWKQgtPCK0ITAhxlho-47">
          <mxGeometry x="5" y="245" width="150" height="80" as="geometry" />
        </mxCell>
        <mxCell id="GlFWKQgtPCK0ITAhxlho-140" style="edgeStyle=orthogonalEdgeStyle;rounded=0;orthogonalLoop=1;jettySize=auto;html=1;exitX=0.5;exitY=1;exitDx=0;exitDy=0;entryX=0.5;entryY=0;entryDx=0;entryDy=0;" edge="1" parent="GlFWKQgtPCK0ITAhxlho-47" source="GlFWKQgtPCK0ITAhxlho-121" target="GlFWKQgtPCK0ITAhxlho-135">
          <mxGeometry relative="1" as="geometry" />
        </mxCell>
        <mxCell id="GlFWKQgtPCK0ITAhxlho-143" style="edgeStyle=orthogonalEdgeStyle;rounded=0;orthogonalLoop=1;jettySize=auto;html=1;exitX=0.5;exitY=1;exitDx=0;exitDy=0;entryX=0.5;entryY=0;entryDx=0;entryDy=0;" edge="1" parent="GlFWKQgtPCK0ITAhxlho-47" source="GlFWKQgtPCK0ITAhxlho-121" target="GlFWKQgtPCK0ITAhxlho-142">
          <mxGeometry relative="1" as="geometry" />
        </mxCell>
        <mxCell id="GlFWKQgtPCK0ITAhxlho-121" value="Continue to hold" style="rounded=1;whiteSpace=wrap;html=1;" vertex="1" parent="GlFWKQgtPCK0ITAhxlho-47">
          <mxGeometry x="90" y="382" width="120" height="60" as="geometry" />
        </mxCell>
        <mxCell id="GlFWKQgtPCK0ITAhxlho-130" value="" style="edgeStyle=orthogonalEdgeStyle;rounded=0;orthogonalLoop=1;jettySize=auto;html=1;" edge="1" parent="GlFWKQgtPCK0ITAhxlho-47" source="GlFWKQgtPCK0ITAhxlho-129" target="GlFWKQgtPCK0ITAhxlho-121">
          <mxGeometry relative="1" as="geometry" />
        </mxCell>
        <mxCell id="GlFWKQgtPCK0ITAhxlho-131" value="No" style="edgeLabel;html=1;align=center;verticalAlign=middle;resizable=0;points=[];" vertex="1" connectable="0" parent="GlFWKQgtPCK0ITAhxlho-130">
          <mxGeometry x="-0.042" y="-4" relative="1" as="geometry">
            <mxPoint as="offset" />
          </mxGeometry>
        </mxCell>
        <mxCell id="GlFWKQgtPCK0ITAhxlho-129" value="Checkout Completed?" style="rhombus;whiteSpace=wrap;html=1;" vertex="1" parent="GlFWKQgtPCK0ITAhxlho-47">
          <mxGeometry x="150" y="245" width="150" height="80" as="geometry" />
        </mxCell>
        <mxCell id="GlFWKQgtPCK0ITAhxlho-155" style="edgeStyle=orthogonalEdgeStyle;rounded=0;orthogonalLoop=1;jettySize=auto;html=1;exitX=1;exitY=0.5;exitDx=0;exitDy=0;entryX=1;entryY=0.5;entryDx=0;entryDy=0;" edge="1" parent="GlFWKQgtPCK0ITAhxlho-47" source="GlFWKQgtPCK0ITAhxlho-135" target="GlFWKQgtPCK0ITAhxlho-121">
          <mxGeometry relative="1" as="geometry" />
        </mxCell>
        <mxCell id="GlFWKQgtPCK0ITAhxlho-156" value="No" style="edgeLabel;html=1;align=center;verticalAlign=middle;resizable=0;points=[];" vertex="1" connectable="0" parent="GlFWKQgtPCK0ITAhxlho-155">
          <mxGeometry x="0.0676" y="3" relative="1" as="geometry">
            <mxPoint as="offset" />
          </mxGeometry>
        </mxCell>
        <mxCell id="GlFWKQgtPCK0ITAhxlho-135" value="Over 15 Minutes?" style="rhombus;whiteSpace=wrap;html=1;" vertex="1" parent="GlFWKQgtPCK0ITAhxlho-47">
          <mxGeometry x="185" y="472" width="80" height="80" as="geometry" />
        </mxCell>
        <mxCell id="GlFWKQgtPCK0ITAhxlho-139" value="" style="edgeStyle=orthogonalEdgeStyle;rounded=0;orthogonalLoop=1;jettySize=auto;html=1;" edge="1" parent="GlFWKQgtPCK0ITAhxlho-47" source="GlFWKQgtPCK0ITAhxlho-137" target="GlFWKQgtPCK0ITAhxlho-138">
          <mxGeometry relative="1" as="geometry" />
        </mxCell>
        <mxCell id="GlFWKQgtPCK0ITAhxlho-137" value="Return item to stock" style="rounded=1;whiteSpace=wrap;html=1;" vertex="1" parent="GlFWKQgtPCK0ITAhxlho-47">
          <mxGeometry x="300" y="42" width="120" height="60" as="geometry" />
        </mxCell>
        <mxCell id="GlFWKQgtPCK0ITAhxlho-136" style="edgeStyle=orthogonalEdgeStyle;rounded=0;orthogonalLoop=1;jettySize=auto;html=1;entryX=1;entryY=0.5;entryDx=0;entryDy=0;" edge="1" parent="GlFWKQgtPCK0ITAhxlho-47" source="GlFWKQgtPCK0ITAhxlho-135" target="GlFWKQgtPCK0ITAhxlho-137">
          <mxGeometry relative="1" as="geometry">
            <mxPoint x="460" y="72" as="targetPoint" />
          </mxGeometry>
        </mxCell>
        <mxCell id="GlFWKQgtPCK0ITAhxlho-149" value="Yes" style="edgeLabel;html=1;align=center;verticalAlign=middle;resizable=0;points=[];" vertex="1" connectable="0" parent="GlFWKQgtPCK0ITAhxlho-136">
          <mxGeometry x="-0.6863" y="6" relative="1" as="geometry">
            <mxPoint as="offset" />
          </mxGeometry>
        </mxCell>
        <mxCell id="GlFWKQgtPCK0ITAhxlho-138" value="Add (X) product to stock level" style="rounded=1;whiteSpace=wrap;html=1;" vertex="1" parent="GlFWKQgtPCK0ITAhxlho-47">
          <mxGeometry x="300" y="152" width="120" height="60" as="geometry" />
        </mxCell>
        <mxCell id="GlFWKQgtPCK0ITAhxlho-145" value="" style="edgeStyle=orthogonalEdgeStyle;rounded=0;orthogonalLoop=1;jettySize=auto;html=1;" edge="1" parent="GlFWKQgtPCK0ITAhxlho-47" source="GlFWKQgtPCK0ITAhxlho-142" target="GlFWKQgtPCK0ITAhxlho-144">
          <mxGeometry relative="1" as="geometry" />
        </mxCell>
        <mxCell id="GlFWKQgtPCK0ITAhxlho-146" value="Yes" style="edgeLabel;html=1;align=center;verticalAlign=middle;resizable=0;points=[];" vertex="1" connectable="0" parent="GlFWKQgtPCK0ITAhxlho-145">
          <mxGeometry x="0.3242" y="-1" relative="1" as="geometry">
            <mxPoint as="offset" />
          </mxGeometry>
        </mxCell>
        <mxCell id="GlFWKQgtPCK0ITAhxlho-147" value="" style="edgeStyle=orthogonalEdgeStyle;rounded=0;orthogonalLoop=1;jettySize=auto;html=1;" edge="1" parent="GlFWKQgtPCK0ITAhxlho-47" source="GlFWKQgtPCK0ITAhxlho-142" target="GlFWKQgtPCK0ITAhxlho-135">
          <mxGeometry relative="1" as="geometry" />
        </mxCell>
        <mxCell id="GlFWKQgtPCK0ITAhxlho-148" value="No" style="edgeLabel;html=1;align=center;verticalAlign=middle;resizable=0;points=[];" vertex="1" connectable="0" parent="GlFWKQgtPCK0ITAhxlho-147">
          <mxGeometry x="-0.0787" y="-2" relative="1" as="geometry">
            <mxPoint as="offset" />
          </mxGeometry>
        </mxCell>
        <mxCell id="GlFWKQgtPCK0ITAhxlho-142" value="Checkout Completed?" style="rhombus;whiteSpace=wrap;html=1;" vertex="1" parent="GlFWKQgtPCK0ITAhxlho-47">
          <mxGeometry x="5" y="472" width="130" height="80" as="geometry" />
        </mxCell>
        <mxCell id="GlFWKQgtPCK0ITAhxlho-144" value="Remove (X) product from stock level" style="rounded=1;whiteSpace=wrap;html=1;" vertex="1" parent="GlFWKQgtPCK0ITAhxlho-47">
          <mxGeometry x="10" y="602" width="120" height="60" as="geometry" />
        </mxCell>
        <mxCell id="GlFWKQgtPCK0ITAhxlho-63" value="Staff" style="swimlane;whiteSpace=wrap" vertex="1" parent="1">
          <mxGeometry x="500" y="830" width="390" height="702" as="geometry" />
        </mxCell>
        <mxCell id="GlFWKQgtPCK0ITAhxlho-64" value="Order Alert" style="" vertex="1" parent="GlFWKQgtPCK0ITAhxlho-63">
          <mxGeometry x="137.75" y="72" width="110" height="50" as="geometry" />
        </mxCell>
        <mxCell id="GlFWKQgtPCK0ITAhxlho-66" value="" style="endArrow=open;strokeColor=#000000;endFill=1;rounded=0;entryX=0.5;entryY=0;entryDx=0;entryDy=0;" edge="1" parent="GlFWKQgtPCK0ITAhxlho-63" source="GlFWKQgtPCK0ITAhxlho-64" target="GlFWKQgtPCK0ITAhxlho-163">
          <mxGeometry relative="1" as="geometry">
            <mxPoint x="192.75" y="192" as="targetPoint" />
          </mxGeometry>
        </mxCell>
        <mxCell id="GlFWKQgtPCK0ITAhxlho-68" value="" style="edgeStyle=elbowEdgeStyle;elbow=horizontal;strokeColor=#000000;endArrow=open;endFill=1;rounded=0;exitX=0;exitY=0.5;exitDx=0;exitDy=0;entryX=0;entryY=0.5;entryDx=0;entryDy=0;" edge="1" parent="GlFWKQgtPCK0ITAhxlho-63" source="GlFWKQgtPCK0ITAhxlho-70" target="GlFWKQgtPCK0ITAhxlho-166">
          <mxGeometry width="100" height="100" relative="1" as="geometry">
            <mxPoint x="60" y="350" as="sourcePoint" />
            <mxPoint x="70" y="470" as="targetPoint" />
            <Array as="points">
              <mxPoint x="30" y="250" />
            </Array>
          </mxGeometry>
        </mxCell>
        <mxCell id="GlFWKQgtPCK0ITAhxlho-69" value="&lt;div&gt;Yes&lt;/div&gt;" style="edgeLabel;html=1;align=center;verticalAlign=middle;resizable=0;points=[];" vertex="1" connectable="0" parent="GlFWKQgtPCK0ITAhxlho-68">
          <mxGeometry x="-0.008" y="2" relative="1" as="geometry">
            <mxPoint as="offset" />
          </mxGeometry>
        </mxCell>
        <mxCell id="GlFWKQgtPCK0ITAhxlho-160" value="" style="edgeStyle=orthogonalEdgeStyle;rounded=0;orthogonalLoop=1;jettySize=auto;html=1;entryX=0.5;entryY=0;entryDx=0;entryDy=0;exitX=1;exitY=0.5;exitDx=0;exitDy=0;" edge="1" parent="GlFWKQgtPCK0ITAhxlho-63" source="GlFWKQgtPCK0ITAhxlho-70" target="GlFWKQgtPCK0ITAhxlho-162">
          <mxGeometry relative="1" as="geometry">
            <mxPoint x="192.75" y="442" as="targetPoint" />
          </mxGeometry>
        </mxCell>
        <mxCell id="GlFWKQgtPCK0ITAhxlho-161" value="No" style="edgeLabel;html=1;align=center;verticalAlign=middle;resizable=0;points=[];" vertex="1" connectable="0" parent="GlFWKQgtPCK0ITAhxlho-160">
          <mxGeometry x="-0.4732" y="-1" relative="1" as="geometry">
            <mxPoint as="offset" />
          </mxGeometry>
        </mxCell>
        <mxCell id="GlFWKQgtPCK0ITAhxlho-70" value="Label Printed?" style="rhombus;whiteSpace=wrap;html=1;" vertex="1" parent="GlFWKQgtPCK0ITAhxlho-63">
          <mxGeometry x="112.75" y="240" width="160" height="80" as="geometry" />
        </mxCell>
        <mxCell id="GlFWKQgtPCK0ITAhxlho-162" value="Print Label" style="rounded=1;whiteSpace=wrap;html=1;" vertex="1" parent="GlFWKQgtPCK0ITAhxlho-63">
          <mxGeometry x="260" y="349" width="120" height="60" as="geometry" />
        </mxCell>
        <mxCell id="GlFWKQgtPCK0ITAhxlho-165" value="" style="edgeStyle=orthogonalEdgeStyle;rounded=0;orthogonalLoop=1;jettySize=auto;html=1;" edge="1" parent="GlFWKQgtPCK0ITAhxlho-63" source="GlFWKQgtPCK0ITAhxlho-163" target="GlFWKQgtPCK0ITAhxlho-70">
          <mxGeometry relative="1" as="geometry" />
        </mxCell>
        <mxCell id="GlFWKQgtPCK0ITAhxlho-163" value="Pick Order" style="rounded=1;whiteSpace=wrap;html=1;" vertex="1" parent="GlFWKQgtPCK0ITAhxlho-63">
          <mxGeometry x="132.75" y="150" width="120" height="60" as="geometry" />
        </mxCell>
        <mxCell id="GlFWKQgtPCK0ITAhxlho-166" value="Order Complete" style="rounded=1;whiteSpace=wrap;html=1;" vertex="1" parent="GlFWKQgtPCK0ITAhxlho-63">
          <mxGeometry x="10" y="350" width="120" height="60" as="geometry" />
        </mxCell>
        <mxCell id="GlFWKQgtPCK0ITAhxlho-72" value="Bank" style="swimlane;whiteSpace=wrap" vertex="1" parent="1">
          <mxGeometry y="830" width="500" height="702" as="geometry" />
        </mxCell>
        <mxCell id="GlFWKQgtPCK0ITAhxlho-93" value="" style="edgeStyle=orthogonalEdgeStyle;rounded=0;orthogonalLoop=1;jettySize=auto;html=1;" edge="1" parent="GlFWKQgtPCK0ITAhxlho-72" source="GlFWKQgtPCK0ITAhxlho-74" target="GlFWKQgtPCK0ITAhxlho-92">
          <mxGeometry relative="1" as="geometry" />
        </mxCell>
        <mxCell id="GlFWKQgtPCK0ITAhxlho-74" value="Check card details" style="" vertex="1" parent="GlFWKQgtPCK0ITAhxlho-72">
          <mxGeometry x="95" y="72" width="110" height="50" as="geometry" />
        </mxCell>
        <mxCell id="GlFWKQgtPCK0ITAhxlho-97" value="" style="edgeStyle=orthogonalEdgeStyle;rounded=0;orthogonalLoop=1;jettySize=auto;html=1;" edge="1" parent="GlFWKQgtPCK0ITAhxlho-72" source="GlFWKQgtPCK0ITAhxlho-92" target="GlFWKQgtPCK0ITAhxlho-96">
          <mxGeometry relative="1" as="geometry" />
        </mxCell>
        <mxCell id="GlFWKQgtPCK0ITAhxlho-92" value="Detail match?" style="rhombus;whiteSpace=wrap;html=1;" vertex="1" parent="GlFWKQgtPCK0ITAhxlho-72">
          <mxGeometry x="70" y="187" width="160" height="80" as="geometry" />
        </mxCell>
        <mxCell id="GlFWKQgtPCK0ITAhxlho-96" value="" style="rounded=1;whiteSpace=wrap;html=1;" vertex="1" parent="GlFWKQgtPCK0ITAhxlho-72">
          <mxGeometry x="90" y="316" width="120" height="60" as="geometry" />
        </mxCell>
        <mxCell id="GlFWKQgtPCK0ITAhxlho-112" style="edgeStyle=orthogonalEdgeStyle;rounded=0;orthogonalLoop=1;jettySize=auto;html=1;entryX=0;entryY=0.5;entryDx=0;entryDy=0;" edge="1" parent="1" source="GlFWKQgtPCK0ITAhxlho-101" target="GlFWKQgtPCK0ITAhxlho-105">
          <mxGeometry relative="1" as="geometry" />
        </mxCell>
        <mxCell id="GlFWKQgtPCK0ITAhxlho-167" style="edgeStyle=orthogonalEdgeStyle;rounded=0;orthogonalLoop=1;jettySize=auto;html=1;entryX=0.5;entryY=0;entryDx=0;entryDy=0;" edge="1" parent="1" source="GlFWKQgtPCK0ITAhxlho-60" target="GlFWKQgtPCK0ITAhxlho-74">
          <mxGeometry relative="1" as="geometry" />
        </mxCell>
        <mxCell id="GlFWKQgtPCK0ITAhxlho-168" value="Yes" style="edgeLabel;html=1;align=center;verticalAlign=middle;resizable=0;points=[];" vertex="1" connectable="0" parent="GlFWKQgtPCK0ITAhxlho-167">
          <mxGeometry x="-0.5777" y="-5" relative="1" as="geometry">
            <mxPoint as="offset" />
          </mxGeometry>
        </mxCell>
      </root>
    </mxGraphModel>
  </diagram>
</mxfile>
